M48
;Layer_Color=9474304
;FILE_FORMAT=2:4
INCH,TZ
;TYPE=PLATED
T1F00S00C0.0157
T2F00S00C0.0276
T3F00S00C0.0300
T4F00S00C0.0315
T5F00S00C0.0354
T6F00S00C0.0394
T7F00S00C0.0433
T8F00S00C0.0472
T9F00S00C0.0512
T10F00S00C0.0709
;TYPE=NON_PLATED
T11F00S00C0.0433
%
T01
X13622Y7205
X15669Y8031
X20610Y7205
X22618Y6969
X23622Y7992
X24606Y7638
X25157Y6772
T02
X6508Y10906
X6498Y11713
X7498
X7508Y10906
X9047Y11614
X10047
X11281Y11585
X12282
X11931Y10020
X12931
X14333Y11575
X15333
X15461Y4321
X14461
X16331Y4242
X16331Y4931
X17331
X17331Y4242
X17232Y11594
X16232
X19136Y11703
X20136
X21104Y11673
X22104
X23831Y11713
X24831
X25871Y11675
X26740Y11724
Y12724
X25871Y12675
X26031Y10532
X25031
X26675Y8514
Y7776
Y6890
X27675
Y7776
Y8514
X20205Y10059
X19205
X32925Y5817
Y5118
Y4370
X33925
Y5118
Y5817
X25182Y17394
X24181
X23431
Y16444
X22431
X21509
Y17444
X22431Y17394
X20435
X19435
X18735
Y16444
X17735
X16911
Y17444
X17735Y17394
X15443
X14443
X13693
Y16444
X12693
X11909Y16429
Y17429
X12693Y17394
X10302
X9302
X8552
Y16444
X7552
X6652
Y17444
X7552Y17394
T03
X12630Y5858
X13630
X14630
Y8858
X13630
X12630
X15630
X16630
X17630
X18630
X19630
X20630
X21630
X22630
X23630
X24630
X25630
Y5858
X24630
X23630
X22630
X21630
X20630
X19630
X18630
X17630
X16630
X15630
T04
X12539Y4429
X13539
T05
X8945Y4902
Y5902
Y6902
X9945
Y5902
Y4902
X10945
Y5902
Y6902
X10780Y9075
X9780
X8780
Y10075
X9780
X10780
X10052Y12644
X9052
X8052
X7052
X12143
X13143
X14143
X15143
X17135
X18135
X19135
X20135
X21832
X22831
X23832
X24832
Y15644
X23832
X22831
X21832
X20135
X19135
X18135
X17135
X15143
X14143
X13143
X12143
X10052
X9052
X8052
X7052
T06
X6850Y4724
Y5709
Y6693
Y7677
Y8661
Y9646
X16063Y10039
X17047
X18032
X18543Y4508
X19528
X20512
X22323Y4459
X23307
X24291
X25276
X28423Y5102
X29423
X30423
X29626Y7037
Y8022
X29935Y10817
X28935
X30935
X26883Y14140
Y15140
X33622Y10974
Y9990
X33051Y8100
Y7116
X32677Y16339
X32776Y21575
X30807
X27244Y22500
X26244
X25244
X25144Y19047
X26144
X27144
X26883Y16140
X30709Y16339
X21315Y19047
X20315
X19315
X19365Y22500
X20365
X21365
X15485
X14485
X13485
Y19047
X14485
X15485
X9507
X8507
X7507
Y22500
X8507
X9507
T07
X31587Y12480
T08
X28353Y12938
X28349Y13996
X33643Y18920
X28349Y16791
T09
X21201Y10138
X23760
T10
X30000Y13041
X33422Y13563
X26331Y21097
X20305
X14425Y21096
X8497Y21097
T11
X33571Y12480
M30
