%FSLAX24Y24*%
%MOIN*%
%SFA1B1*%

%IPPOS*%
%ADD10C,0.039400*%
%ADD36C,0.010000*%
%ADD37C,0.007900*%
%ADD38C,0.023600*%
%ADD39C,0.009800*%
%ADD40C,0.035400*%
%ADD41C,0.005900*%
%ADD42R,0.074800X0.031500*%
%LN2x-h-bridge-1*%
%LPD*%
G54D10*
X8965Y8091D02*
D01*
D01*
G75*
G03X8791I-87J0D01*
G74*G01*
D01*
G75*
G03X8965I87J0D01*
G74*G01*
G54D36*
X31004Y7549D02*
D01*
D01*
G75*
G03X28248I-1378J0D01*
G74*G01*
D01*
G75*
G03X31004I1378J0D01*
G74*G01*
X34429Y7589D02*
D01*
D01*
G75*
G03X31673I-1378J0D01*
G74*G01*
D01*
G75*
G03X34429I1378J0D01*
G74*G01*
X28248Y7549D02*
X31004D01*
X30846Y8022D02*
D01*
D01*
X30374Y7549D02*
X30846Y8022D01*
X29705Y7549D02*
X30610Y8455D01*
X30059Y8809D02*
Y8848D01*
X28799Y7549D02*
X30059Y8809D01*
X28327Y7746D02*
X29429Y8848D01*
X12431Y9820D02*
Y10220D01*
X12231Y10020D02*
X12431Y10220D01*
Y9820D02*
X12631Y10020D01*
X12943Y4079D02*
X13578Y4473D01*
X12943Y4079D02*
Y4724D01*
X13284Y4497*
X13307Y3927D02*
Y4931D01*
X15472Y10630D02*
X18622D01*
X15472Y9449D02*
Y10630D01*
Y9449D02*
X18622D01*
Y10630*
X27431Y4197D02*
X31329D01*
X27431Y5772D02*
X31368D01*
X27431Y4039D02*
X31368D01*
Y5772*
X27431Y4039D02*
Y5772D01*
X21299Y9449D02*
Y10827D01*
X23661Y9449D02*
Y10827D01*
X21299Y9449D02*
X23661D01*
X21299Y10827D02*
X23661D01*
X21988Y9843D02*
X23071D01*
Y10433*
X21988Y9843D02*
Y10433D01*
X23071*
X14961Y4121D02*
Y4521D01*
Y4121D02*
X15161Y4321D01*
X14761D02*
X14961Y4521D01*
X19805Y9809D02*
Y10009D01*
X19655Y9809D02*
Y10009D01*
Y10309*
X19805Y10009D02*
Y10309D01*
X19505Y10059D02*
X19655D01*
X19855D02*
X19955D01*
X6908Y10956D02*
Y11156D01*
X7058Y10956D02*
Y11156D01*
Y10656D02*
Y10956D01*
X6908Y10656D02*
Y10956D01*
X7058Y10906D02*
X7208D01*
X6758D02*
X6858D01*
X27075Y7826D02*
Y8026D01*
X27225Y7826D02*
Y8026D01*
Y7526D02*
Y7826D01*
X27075Y7526D02*
Y7826D01*
X27225Y7776D02*
X27375D01*
X26925D02*
X27025D01*
X27075Y8564D02*
Y8764D01*
X27225Y8564D02*
Y8764D01*
Y8264D02*
Y8564D01*
X27075Y8264D02*
Y8564D01*
X27225Y8514D02*
X27375D01*
X26925D02*
X27025D01*
X26740Y12424D02*
X26940Y12224D01*
X26540D02*
X26940D01*
X26540D02*
X26740Y12024D01*
X25871Y12375D02*
X26071Y12175D01*
X25671D02*
X26071D01*
X25671D02*
X25871Y11975D01*
X25978Y13235D02*
Y17132D01*
X27552Y13195D02*
Y17132D01*
X25820Y13195D02*
Y17132D01*
Y13195D02*
X27552D01*
X25820Y17132D02*
X27552D01*
X32429Y12030D02*
Y12930D01*
Y12480D02*
X32779Y12130D01*
Y12830*
X32429Y12480D02*
X32779Y12830D01*
X7802Y16444D02*
X7902D01*
X8102D02*
X8252D01*
X7952Y16194D02*
Y16494D01*
X8102Y16194D02*
Y16494D01*
Y16694*
X7952Y16494D02*
Y16694D01*
X12943Y16444D02*
X13043D01*
X13243D02*
X13393D01*
X13093Y16194D02*
Y16494D01*
X13243Y16194D02*
Y16494D01*
Y16694*
X13093Y16494D02*
Y16694D01*
X17985Y16444D02*
X18085D01*
X18285D02*
X18435D01*
X18135Y16194D02*
Y16494D01*
X18285Y16194D02*
Y16494D01*
Y16694*
X18135Y16494D02*
Y16694D01*
X22682Y16444D02*
X22782D01*
X22982D02*
X23131D01*
X22831Y16194D02*
Y16494D01*
X22982Y16194D02*
Y16494D01*
Y16694*
X22831Y16494D02*
Y16694D01*
X9697Y11614D02*
X9797D01*
X9347D02*
X9497D01*
X9647Y11564D02*
Y11864D01*
X9497Y11564D02*
Y11864D01*
Y11364D02*
Y11564D01*
X9647Y11364D02*
Y11564D01*
X19786Y11703D02*
X19886D01*
X19436D02*
X19586D01*
X19736Y11653D02*
Y11953D01*
X19586Y11653D02*
Y11953D01*
Y11453D02*
Y11653D01*
X19736Y11453D02*
Y11653D01*
X24481Y11713D02*
X24581D01*
X24131D02*
X24281D01*
X24431Y11663D02*
Y11963D01*
X24281Y11663D02*
Y11963D01*
Y11463D02*
Y11663D01*
X24431Y11463D02*
Y11663D01*
X6202Y17094D02*
X7102D01*
X6302Y16744D02*
X6652Y17094D01*
X6302Y16744D02*
X7002D01*
X6652Y17094D02*
X7002Y16744D01*
X16911Y17094D02*
X17261Y16744D01*
X16561D02*
X17261D01*
X16561D02*
X16911Y17094D01*
X16461D02*
X17361D01*
X21059D02*
X21959D01*
X21159Y16744D02*
X21509Y17094D01*
X21159Y16744D02*
X21859D01*
X21509Y17094D02*
X21859Y16744D01*
X10499Y21831D02*
Y23563D01*
X6562Y21831D02*
Y23563D01*
X10499*
X6562Y21831D02*
X10499D01*
X6602Y23406D02*
X10499D01*
X16477Y21831D02*
Y23563D01*
X12540Y21831D02*
Y23563D01*
X16477*
X12540Y21831D02*
X16477D01*
X12580Y23406D02*
X16477D01*
X22357Y21831D02*
Y23563D01*
X18420Y21831D02*
Y23563D01*
X22357*
X18420Y21831D02*
X22357D01*
X18459Y23406D02*
X22357D01*
X28236Y21831D02*
Y23563D01*
X24299Y21831D02*
Y23563D01*
X28236*
X24299Y21831D02*
X28236D01*
X24339Y23406D02*
X28236D01*
X10499Y18378D02*
Y20110D01*
X6562Y18378D02*
Y20110D01*
X10499*
X6562Y18378D02*
X10499D01*
X6602Y19952D02*
X10499D01*
X16477Y18378D02*
Y20110D01*
X12540Y18378D02*
Y20110D01*
X16477*
X12540Y18378D02*
X16477D01*
X12580Y19952D02*
X16477D01*
X28136Y18378D02*
Y20110D01*
X24199Y18378D02*
Y20110D01*
X28136*
X24199Y18378D02*
X28136D01*
X24239Y19952D02*
X28136D01*
X7852Y17394D02*
X8052Y17594D01*
Y17194D02*
Y17594D01*
Y17194D02*
X8252Y17394D01*
X12993D02*
X13193Y17594D01*
Y17194D02*
Y17594D01*
Y17194D02*
X13393Y17394D01*
X18035D02*
X18235Y17594D01*
Y17194D02*
Y17594D01*
Y17194D02*
X18435Y17394D01*
X22731D02*
X22931Y17594D01*
Y17194D02*
Y17594D01*
Y17194D02*
X23131Y17394D01*
X9602D02*
X9802Y17594D01*
Y17194D02*
Y17594D01*
Y17194D02*
X10002Y17394D01*
X14743D02*
X14943Y17594D01*
Y17194D02*
Y17594D01*
Y17194D02*
X15143Y17394D01*
X19735D02*
X19935Y17594D01*
Y17194D02*
Y17594D01*
Y17194D02*
X20135Y17394D01*
X24481D02*
X24681Y17594D01*
Y17194D02*
Y17594D01*
Y17194D02*
X24881Y17394D01*
X6798Y11713D02*
X6998Y11913D01*
Y11513D02*
Y11913D01*
Y11513D02*
X7198Y11713D01*
X11581Y11585D02*
X11782Y11785D01*
Y11385D02*
Y11785D01*
Y11385D02*
X11982Y11585D01*
X16532Y11594D02*
X16732Y11794D01*
Y11394D02*
Y11794D01*
Y11394D02*
X16932Y11594D01*
X21404Y11673D02*
X21604Y11873D01*
Y11473D02*
Y11873D01*
Y11473D02*
X21804Y11673D01*
X27325Y6890D02*
X27425D01*
X26975D02*
X27125D01*
X27275Y6840D02*
Y7140D01*
X27125Y6840D02*
Y7140D01*
Y6640D02*
Y6840D01*
X27275Y6640D02*
Y6840D01*
X33175Y4370D02*
X33275D01*
X33475D02*
X33625D01*
X33325Y4120D02*
Y4420D01*
X33475Y4120D02*
Y4420D01*
Y4620*
X33325Y4420D02*
Y4620D01*
X16581Y4242D02*
X16681D01*
X16881D02*
X17031D01*
X16731Y3992D02*
Y4292D01*
X16881Y3992D02*
Y4292D01*
Y4492*
X16731Y4292D02*
Y4492D01*
X33425Y5617D02*
X33625Y5817D01*
X33225D02*
X33425Y6017D01*
Y5617D02*
Y6017D01*
X16631Y4931D02*
X16831Y5131D01*
Y4731D02*
X17031Y4931D01*
X16831Y4731D02*
Y5131D01*
X33225Y5118D02*
X33425Y5318D01*
Y4918D02*
X33625Y5118D01*
X33425Y4918D02*
Y5318D01*
X27943Y9911D02*
X31841D01*
X27943Y11486D02*
X31880D01*
X27943Y9754D02*
X31880D01*
Y11486*
X27943Y9754D02*
Y11486D01*
X22307Y18378D02*
Y20110D01*
X18370Y18378D02*
Y20110D01*
X22307*
X18370Y18378D02*
X22307D01*
X18409Y19952D02*
X22307D01*
X31791Y19114D02*
Y24035D01*
X31398Y23937D02*
X31791Y23543D01*
X30807Y23740D02*
D01*
X31693Y22854*
D01*
X31791Y22756D01*
X30315Y23543D02*
X31791Y22067D01*
X29823Y23051D02*
X31791Y21083D01*
X29528Y22362D02*
X31791Y20098D01*
X29331Y21280D02*
X31398Y19213D01*
X33248Y6289D02*
X34350Y7392D01*
X32618Y6329D02*
X33878Y7589D01*
X32618Y6289D02*
Y6329D01*
X32067Y6683D02*
X32972Y7589D01*
X31831Y7116D02*
X32303Y7589D01*
X31831Y7116D02*
D01*
D01*
X31673Y7589D02*
X34429D01*
X11909Y17079D02*
X12259Y16729D01*
X11559D02*
X12259D01*
X11559D02*
X11909Y17079D01*
X11459D02*
X12359D01*
X25531Y10332D02*
X25731Y10532D01*
X25331D02*
X25531Y10732D01*
Y10332D02*
Y10732D01*
X25630Y6693D02*
Y7874D01*
X12244Y5315D02*
X26024D01*
X12244D02*
Y9252D01*
X26024*
X25630Y7874D02*
X26024Y8268D01*
Y9252*
X25630Y6693D02*
X26024Y6299D01*
Y5315D02*
Y6299D01*
X29232Y16043D02*
X31299Y13976D01*
X29429Y17126D02*
X31693Y14862D01*
X29724Y17815D02*
X31693Y15846D01*
X30216Y18307D02*
X31693Y16831D01*
X31594Y17618D02*
X31693Y17520D01*
X31594Y17618D02*
D01*
X30709Y18504D02*
X31594Y17618D01*
X30709Y18504D02*
D01*
X31299Y18701D02*
X31693Y18307D01*
Y13878D02*
Y18799D01*
X11112Y3691D02*
X11407D01*
X11112D02*
Y4183D01*
X10817D02*
X11112D01*
X10817Y3691D02*
Y4183D01*
X10522Y3691D02*
X10817D01*
X8583Y3957D02*
X9173D01*
X9646Y3907D02*
X10236D01*
X9941Y3612D02*
Y4203D01*
X8287Y4311D02*
Y7461D01*
Y4311D02*
X11535D01*
X8287Y7461D02*
X11535D01*
Y4311D02*
Y7461D01*
X14983Y11575D02*
X15083D01*
X14633D02*
X14783D01*
X14933Y11525D02*
Y11825D01*
X14783Y11525D02*
Y11825D01*
Y11325D02*
Y11525D01*
X14933Y11325D02*
Y11525D01*
G54D37*
X28793Y12938D02*
D01*
D01*
G75*
G03X27913I-440J0D01*
G74*G01*
D01*
G75*
G03X28793I440J0D01*
G74*G01*
X34117Y18921D02*
D01*
D01*
G75*
G03X33169I-474J0D01*
G74*G01*
D01*
G75*
G03X34117I474J0D01*
G74*G01*
X34081Y13563D02*
D01*
D01*
G75*
G03X32761I-660J0D01*
G74*G01*
D01*
G75*
G03X34081I660J0D01*
G74*G01*
X15082Y21096D02*
D01*
D01*
G75*
G03X13768I-657J0D01*
G74*G01*
D01*
G75*
G03X15082I657J0D01*
G74*G01*
X20988Y21097D02*
D01*
D01*
G75*
G03X19622I-683J0D01*
G74*G01*
D01*
G75*
G03X20988I683J0D01*
G74*G01*
X27001D02*
D01*
D01*
G75*
G03X25661I-670J0D01*
G74*G01*
D01*
G75*
G03X27001I670J0D01*
G74*G01*
X30700Y13041D02*
D01*
D01*
G75*
G03X29302I-699J0D01*
G74*G01*
D01*
G75*
G03X30700I699J0D01*
G74*G01*
X6524Y13894D02*
D01*
D01*
G75*
G03Y14394I0J250D01*
G74*G01*
X11615Y13894D02*
D01*
D01*
G75*
G03Y14394I0J250D01*
G74*G01*
X16607Y13894D02*
D01*
D01*
G75*
G03Y14394I0J250D01*
G74*G01*
X21304Y13894D02*
D01*
D01*
G75*
G03Y14394I0J250D01*
G74*G01*
X9174Y21097D02*
D01*
D01*
G75*
G03X7820I-677J0D01*
G74*G01*
D01*
G75*
G03X9174I677J0D01*
G74*G01*
X34252Y21575D02*
D01*
D01*
G75*
G03X29330I-2461J0D01*
G74*G01*
D01*
G75*
G03X34252I2461J0D01*
G74*G01*
X34153Y16339D02*
D01*
D01*
G75*
G03X29231I-2461J0D01*
G74*G01*
D01*
G75*
G03X34153I2461J0D01*
G74*G01*
X25945Y3711D02*
Y5049D01*
X21654D02*
X25945D01*
X21654Y3711D02*
X25945D01*
X21654D02*
Y5049D01*
X21181Y3760D02*
Y5099D01*
X17870D02*
X21181D01*
X17870Y3760D02*
X21181D01*
X17870D02*
Y5099D01*
X6102Y4055D02*
X7441D01*
Y10315*
X6102Y4055D02*
Y10315D01*
X7441*
X11280Y8575D02*
Y10575D01*
X8280Y8575D02*
Y10575D01*
X11280*
X8280Y8575D02*
X11280D01*
X9363D02*
X11280D01*
X27975Y14626D02*
X28723D01*
X27975D02*
Y16161D01*
X28723Y14626D02*
Y16161D01*
X10580Y13100D02*
Y15187D01*
X6524Y14394D02*
Y15187D01*
Y13100D02*
Y13894D01*
Y15187D02*
X10580D01*
X6524Y13100D02*
X10580D01*
X15670D02*
Y15187D01*
X11615Y14394D02*
Y15187D01*
Y13100D02*
Y13894D01*
Y15187D02*
X15670D01*
X11615Y13100D02*
X15670D01*
X20662D02*
Y15187D01*
X16607Y14394D02*
Y15187D01*
Y13100D02*
Y13894D01*
Y15187D02*
X20662D01*
X16607Y13100D02*
X20662D01*
X25359D02*
Y15187D01*
X21304Y14394D02*
Y15187D01*
Y13100D02*
Y13894D01*
Y15187D02*
X25359D01*
X21304Y13100D02*
X25359D01*
X33031Y11644D02*
X34370D01*
X33031Y9321D02*
Y11644D01*
X34370Y9321D02*
Y11644D01*
X33031Y9321D02*
X34370D01*
X22638Y14291D02*
X22769D01*
X22703*
Y13898*
X22638*
X22769*
X22966D02*
Y14291D01*
X23163*
X23228Y14226*
Y14094*
X23163Y14029*
X22966*
X23097D02*
X23228Y13898D01*
X23622D02*
X23359D01*
X23622Y14160*
Y14226*
X23556Y14291*
X23425*
X23359Y14226*
X23753D02*
X23819Y14291D01*
X23950*
X24015Y14226*
Y14160*
X23950Y14094*
X23884*
X23950*
X24015Y14029*
Y13963*
X23950Y13898*
X23819*
X23753Y13963*
X24146Y14226D02*
X24212Y14291D01*
X24343*
X24409Y14226*
Y13963*
X24343Y13898*
X24212*
X24146Y13963*
Y14226*
X24802Y13898D02*
X24540D01*
X24802Y14160*
Y14226*
X24737Y14291*
X24606*
X24540Y14226*
X17913Y14232D02*
X18045D01*
X17979*
Y13839*
X17913*
X18045*
X18241D02*
Y14232D01*
X18438*
X18504Y14167*
Y14035*
X18438Y13970*
X18241*
X18373D02*
X18504Y13839D01*
X18897D02*
X18635D01*
X18897Y14101*
Y14167*
X18832Y14232*
X18701*
X18635Y14167*
X19029D02*
X19094Y14232D01*
X19225*
X19291Y14167*
Y14101*
X19225Y14035*
X19160*
X19225*
X19291Y13970*
Y13904*
X19225Y13839*
X19094*
X19029Y13904*
X19422Y14167D02*
X19488Y14232D01*
X19619*
X19684Y14167*
Y13904*
X19619Y13839*
X19488*
X19422Y13904*
Y14167*
X20078Y13839D02*
X19816D01*
X20078Y14101*
Y14167*
X20012Y14232*
X19881*
X19816Y14167*
X13012Y14232D02*
X13143D01*
X13077*
Y13839*
X13012*
X13143*
X13340D02*
Y14232D01*
X13537*
X13602Y14167*
Y14035*
X13537Y13970*
X13340*
X13471D02*
X13602Y13839D01*
X13996D02*
X13733D01*
X13996Y14101*
Y14167*
X13930Y14232*
X13799*
X13733Y14167*
X14127D02*
X14193Y14232D01*
X14324*
X14389Y14167*
Y14101*
X14324Y14035*
X14258*
X14324*
X14389Y13970*
Y13904*
X14324Y13839*
X14193*
X14127Y13904*
X14521Y14167D02*
X14586Y14232D01*
X14717*
X14783Y14167*
Y13904*
X14717Y13839*
X14586*
X14521Y13904*
Y14167*
X15176Y13839D02*
X14914D01*
X15176Y14101*
Y14167*
X15111Y14232*
X14980*
X14914Y14167*
X7815Y14291D02*
X7946D01*
X7881*
Y13898*
X7815*
X7946*
X8143D02*
Y14291D01*
X8340*
X8405Y14226*
Y14094*
X8340Y14029*
X8143*
X8274D02*
X8405Y13898D01*
X8799D02*
X8537D01*
X8799Y14160*
Y14226*
X8733Y14291*
X8602*
X8537Y14226*
X8930D02*
X8996Y14291D01*
X9127*
X9192Y14226*
Y14160*
X9127Y14094*
X9061*
X9127*
X9192Y14029*
Y13963*
X9127Y13898*
X8996*
X8930Y13963*
X9324Y14226D02*
X9389Y14291D01*
X9520*
X9586Y14226*
Y13963*
X9520Y13898*
X9389*
X9324Y13963*
Y14226*
X9980Y13898D02*
X9717D01*
X9980Y14160*
Y14226*
X9914Y14291*
X9783*
X9717Y14226*
X16693Y7421D02*
Y7684D01*
X16824Y7815*
X16955Y7684*
Y7421*
Y7618*
X16693*
X17086Y7815D02*
X17349D01*
X17218*
Y7421*
X17480D02*
Y7815D01*
X17611Y7684*
X17742Y7815*
Y7421*
X18136Y7815D02*
X17874D01*
Y7421*
X18136*
X17874Y7618D02*
X18005D01*
X18530Y7749D02*
X18464Y7815D01*
X18333*
X18267Y7749*
Y7487*
X18333Y7421*
X18464*
X18530Y7487*
Y7618*
X18398*
X18661Y7421D02*
Y7684D01*
X18792Y7815*
X18923Y7684*
Y7421*
Y7618*
X18661*
X19054Y7749D02*
X19120Y7815D01*
X19251*
X19317Y7749*
Y7684*
X19251Y7618*
X19186*
X19251*
X19317Y7552*
Y7487*
X19251Y7421*
X19120*
X19054Y7487*
X19710Y7421D02*
X19448D01*
X19710Y7684*
Y7749*
X19645Y7815*
X19514*
X19448Y7749*
X19842D02*
X19907Y7815D01*
X20038*
X20104Y7749*
Y7684*
X20038Y7618*
X20104Y7552*
Y7487*
X20038Y7421*
X19907*
X19842Y7487*
Y7552*
X19907Y7618*
X19842Y7684*
Y7749*
X19907Y7618D02*
X20038D01*
X9168Y23702D02*
Y24016D01*
X9326Y24174*
X9483Y24016*
Y23702*
Y23938*
X9168*
X9641Y24016D02*
Y23702D01*
Y23859*
X9720Y23938*
X9798Y24016*
X9877*
X10428Y24174D02*
Y23702D01*
X10192*
X10113Y23780*
Y23938*
X10192Y24016*
X10428*
X10585D02*
Y23780D01*
X10664Y23702*
X10900*
Y24016*
X11058Y23702D02*
X11215D01*
X11136*
Y24016*
X11058*
X11451Y23702D02*
Y24016D01*
X11687*
X11766Y23938*
Y23702*
X12002D02*
X12160D01*
X12238Y23780*
Y23938*
X12160Y24016*
X12002*
X11924Y23938*
Y23780*
X12002Y23702*
X12868Y24174D02*
Y23702D01*
X13104*
X13183Y23780*
Y24095*
X13104Y24174*
X12868*
X13340Y24016D02*
Y23780D01*
X13419Y23702*
X13655*
Y24016*
X13891D02*
X14049D01*
X14128Y23938*
Y23702*
X13891*
X13813Y23780*
X13891Y23859*
X14128*
X14285Y23702D02*
X14442D01*
X14364*
Y24174*
X14285*
X15151D02*
Y23702D01*
Y23938*
X15466*
Y24174*
Y23702*
X15623Y23938D02*
X15938D01*
X16095Y24174D02*
Y23702D01*
X16332*
X16410Y23780*
Y23859*
X16332Y23938*
X16095*
X16332*
X16410Y24016*
Y24095*
X16332Y24174*
X16095*
X16568Y24016D02*
Y23702D01*
Y23859*
X16646Y23938*
X16725Y24016*
X16804*
X17040Y23702D02*
X17197D01*
X17119*
Y24016*
X17040*
X17748Y24174D02*
Y23702D01*
X17512*
X17434Y23780*
Y23938*
X17512Y24016*
X17748*
X18063Y23544D02*
X18142D01*
X18221Y23623*
Y24016*
X17985*
X17906Y23938*
Y23780*
X17985Y23702*
X18221*
X18614D02*
X18457D01*
X18378Y23780*
Y23938*
X18457Y24016*
X18614*
X18693Y23938*
Y23859*
X18378*
X19323Y24016D02*
X19480Y23702D01*
X19638Y24016*
X19795Y24095D02*
X19874Y24174D01*
X20031*
X20110Y24095*
Y23780*
X20031Y23702*
X19874*
X19795Y23780*
Y24095*
X20267D02*
X20346Y24174D01*
X20503*
X20582Y24095*
Y24016*
X20503Y23938*
X20425*
X20503*
X20582Y23859*
Y23780*
X20503Y23702*
X20346*
X20267Y23780*
X21684Y23938D02*
X21999D01*
X23416Y24174D02*
X23258D01*
X23337*
Y23780*
X23258Y23702*
X23180*
X23101Y23780*
X23573Y24174D02*
Y23702D01*
X23888*
G54D38*
X7036Y13494D02*
D01*
D01*
G75*
G03X6800I-118J0D01*
G74*G01*
D01*
G75*
G03X7036I118J0D01*
G74*G01*
X12127D02*
D01*
D01*
G75*
G03X11891I-118J0D01*
G74*G01*
D01*
G75*
G03X12127I118J0D01*
G74*G01*
X17119D02*
D01*
D01*
G75*
G03X16883I-118J0D01*
G74*G01*
D01*
G75*
G03X17119I118J0D01*
G74*G01*
X21816D02*
D01*
D01*
G75*
G03X21580I-118J0D01*
G74*G01*
D01*
G75*
G03X21816I118J0D01*
G74*G01*
G54D39*
X6589Y12644D02*
D01*
D01*
G75*
G03X6491I-49J0D01*
G74*G01*
D01*
G75*
G03X6589I49J0D01*
G74*G01*
X11680D02*
D01*
D01*
G75*
G03X11582I-49J0D01*
G74*G01*
D01*
G75*
G03X11680I49J0D01*
G74*G01*
X16672D02*
D01*
D01*
G75*
G03X16574I-49J0D01*
G74*G01*
D01*
G75*
G03X16672I49J0D01*
G74*G01*
X21369D02*
D01*
D01*
G75*
G03X21271I-49J0D01*
G74*G01*
D01*
G75*
G03X21369I49J0D01*
G74*G01*
G54D40*
X25909Y9724D02*
D01*
D01*
G75*
G03X25507I-201J0D01*
G74*G01*
D01*
G75*
G03X25909I201J0D01*
G74*G01*
G54D41*
X6319Y3786D02*
X6371Y3838D01*
X6476*
X6529Y3786*
Y3734*
X6476Y3681*
X6424*
X6476*
X6529Y3629*
Y3576*
X6476Y3524*
X6371*
X6319Y3576*
X6634Y3838D02*
Y3629D01*
X6739Y3524*
X6844Y3629*
Y3838*
X6949Y3786D02*
X7001Y3838D01*
X7106*
X7159Y3786*
Y3734*
X7106Y3681*
X7054*
X7106*
X7159Y3629*
Y3576*
X7106Y3524*
X7001*
X6949Y3576*
X30554Y9140D02*
X30502Y9193D01*
X30397*
X30344Y9140*
Y8930*
X30397Y8878*
X30502*
X30554Y8930*
X30659Y8878D02*
X30764D01*
X30712*
Y9193*
X30659Y9140*
X31132Y9193D02*
X30922D01*
Y9035*
X31027Y9088*
X31079*
X31132Y9035*
Y8930*
X31079Y8878*
X30974*
X30922Y8930*
X12008Y10354D02*
Y10669D01*
X12165*
X12218Y10617*
Y10512*
X12165Y10459*
X12008*
X12113D02*
X12218Y10354D01*
X12323D02*
X12428D01*
X12375*
Y10669*
X12323Y10617*
X12585Y10407D02*
X12638Y10354D01*
X12743*
X12795Y10407*
Y10617*
X12743Y10669*
X12638*
X12585Y10617*
Y10564*
X12638Y10512*
X12795*
X12333Y3878D02*
Y3563D01*
X12490*
X12543Y3615*
Y3825*
X12490Y3878*
X12333*
X12648D02*
X12857D01*
Y3825*
X12648Y3615*
Y3563*
X18100Y11083D02*
Y11030D01*
X18205Y10925*
X18310Y11030*
Y11083*
X18205Y10925D02*
Y10768D01*
X18415D02*
X18520D01*
X18468*
Y11083*
X18415Y11030*
X30774Y3917D02*
Y3655D01*
X30826Y3602*
X30931*
X30984Y3655*
Y3917*
X31298D02*
X31194Y3865D01*
X31089Y3760*
Y3655*
X31141Y3602*
X31246*
X31298Y3655*
Y3707*
X31246Y3760*
X31089*
X23005Y11227D02*
X22953Y11279D01*
X22848*
X22795Y11227*
Y11174*
X22848Y11122*
X22953*
X23005Y11070*
Y11017*
X22953Y10965*
X22848*
X22795Y11017*
X23110Y11279D02*
Y10965D01*
X23215Y11070*
X23320Y10965*
Y11279*
X23425Y10965D02*
X23530D01*
X23477*
Y11279*
X23425Y11227*
X14459Y3553D02*
Y3868D01*
X14616*
X14669Y3816*
Y3711*
X14616Y3658*
X14459*
X14564D02*
X14669Y3553D01*
X14983D02*
X14774D01*
X14983Y3763*
Y3816*
X14931Y3868*
X14826*
X14774Y3816*
X15088D02*
X15141Y3868D01*
X15246*
X15298Y3816*
Y3606*
X15246Y3553*
X15141*
X15088Y3606*
Y3816*
X7520Y9902D02*
Y10216D01*
X7677*
X7730Y10164*
Y10059*
X7677Y10007*
X7520*
X7835Y10164D02*
X7887Y10216D01*
X7992*
X8044Y10164*
Y10111*
X7992Y10059*
X8044Y10007*
Y9954*
X7992Y9902*
X7887*
X7835Y9954*
Y10007*
X7887Y10059*
X7835Y10111*
Y10164*
X7887Y10059D02*
X7992D01*
X10541Y8169D02*
Y8484D01*
X10699*
X10751Y8432*
Y8327*
X10699Y8274*
X10541*
X10856Y8169D02*
X10961D01*
X10909*
Y8484*
X10856Y8432*
X11119D02*
X11171Y8484D01*
X11276*
X11328Y8432*
Y8222*
X11276Y8169*
X11171*
X11119Y8222*
Y8432*
X19541Y10705D02*
X19488Y10758D01*
X19383*
X19331Y10705*
Y10495*
X19383Y10443*
X19488*
X19541Y10495*
X19646Y10443D02*
X19751D01*
X19698*
Y10758*
X19646Y10705*
X19908D02*
X19960Y10758D01*
X20065*
X20118Y10705*
Y10653*
X20065Y10600*
X20118Y10548*
Y10495*
X20065Y10443*
X19960*
X19908Y10495*
Y10548*
X19960Y10600*
X19908Y10653*
Y10705*
X19960Y10600D02*
X20065D01*
X8084Y11089D02*
X8031Y11142D01*
X7926*
X7874Y11089*
Y10879*
X7926Y10827*
X8031*
X8084Y10879*
X8189Y10827D02*
X8294D01*
X8241*
Y11142*
X8189Y11089*
X8451Y11142D02*
X8661D01*
Y11089*
X8451Y10879*
Y10827*
X26637Y6434D02*
X26585Y6486D01*
X26480*
X26427Y6434*
Y6224*
X26480Y6171*
X26585*
X26637Y6224*
X26742Y6171D02*
X26847D01*
X26795*
Y6486*
X26742Y6434*
X27214Y6171D02*
X27004D01*
X27214Y6381*
Y6434*
X27162Y6486*
X27057*
X27004Y6434*
X27070Y9199D02*
X27018Y9252D01*
X26913*
X26860Y9199*
Y8989*
X26913Y8937*
X27018*
X27070Y8989*
X27175Y8937D02*
X27280D01*
X27227*
Y9252*
X27175Y9199*
X27437Y8937D02*
X27542D01*
X27490*
Y9252*
X27437Y9199*
X28245Y12284D02*
X28192Y12337D01*
X28087*
X28035Y12284*
Y12232*
X28087Y12179*
X28192*
X28245Y12127*
Y12075*
X28192Y12022*
X28087*
X28035Y12075*
X28349Y12179D02*
X28559D01*
X28664Y12022D02*
X28769D01*
X28717*
Y12337*
X28664Y12284*
X33924Y19727D02*
X33872Y19779D01*
X33767*
X33715Y19727*
Y19674*
X33767Y19622*
X33872*
X33924Y19569*
Y19517*
X33872Y19464*
X33767*
X33715Y19517*
X34082Y19464D02*
X34187D01*
X34239Y19517*
Y19622*
X34187Y19674*
X34082*
X34029Y19622*
Y19517*
X34082Y19464*
X34344D02*
X34449D01*
X34397*
Y19779*
X34344*
X26467Y11111D02*
Y11426D01*
X26625*
X26677Y11374*
Y11269*
X26625Y11216*
X26467*
X26572D02*
X26677Y11111D01*
X26782D02*
X26887D01*
X26835*
Y11426*
X26782Y11374*
X27202Y11111D02*
Y11426D01*
X27045Y11269*
X27254*
X25438Y11078D02*
Y11392D01*
X25596*
X25648Y11340*
Y11235*
X25596Y11183*
X25438*
X25543D02*
X25648Y11078D01*
X25753D02*
X25858D01*
X25806*
Y11392*
X25753Y11340*
X26015D02*
X26068Y11392D01*
X26173*
X26225Y11340*
Y11287*
X26173Y11235*
X26120*
X26173*
X26225Y11183*
Y11130*
X26173Y11078*
X26068*
X26015Y11130*
X26050Y17313D02*
Y17523D01*
X25997Y17575*
X25892*
X25840Y17523*
Y17313*
X25892Y17260*
X25997*
X25945Y17365D02*
X26050Y17260D01*
X25997D02*
X26050Y17313D01*
X26155D02*
X26207Y17260D01*
X26312*
X26365Y17313*
Y17523*
X26312Y17575*
X26207*
X26155Y17523*
Y17470*
X26207Y17418*
X26365*
X28886Y14777D02*
Y14462D01*
X29044*
X29096Y14515*
Y14725*
X29044Y14777*
X28886*
X29411D02*
X29201D01*
Y14620*
X29306Y14672*
X29359*
X29411Y14620*
Y14515*
X29359Y14462*
X29254*
X29201Y14515*
X32362Y11929D02*
Y11614D01*
X32520*
X32572Y11667*
Y11877*
X32520Y11929*
X32362*
X32887D02*
X32782Y11877D01*
X32677Y11772*
Y11667*
X32730Y11614*
X32834*
X32887Y11667*
Y11719*
X32834Y11772*
X32677*
X9128Y16539D02*
X9076Y16591D01*
X8971*
X8918Y16539*
Y16329*
X8971Y16276*
X9076*
X9128Y16329*
X9233Y16276D02*
X9338D01*
X9285*
Y16591*
X9233Y16539*
X14298Y16549D02*
X14246Y16601D01*
X14141*
X14088Y16549*
Y16339*
X14141Y16286*
X14246*
X14298Y16339*
X14613Y16286D02*
X14403D01*
X14613Y16496*
Y16549*
X14560Y16601*
X14456*
X14403Y16549*
X19370D02*
X19317Y16601D01*
X19212*
X19160Y16549*
Y16339*
X19212Y16286*
X19317*
X19370Y16339*
X19475Y16549D02*
X19527Y16601D01*
X19632*
X19685Y16549*
Y16496*
X19632Y16444*
X19580*
X19632*
X19685Y16391*
Y16339*
X19632Y16286*
X19527*
X19475Y16339*
X24047Y16539D02*
X23994Y16591D01*
X23889*
X23837Y16539*
Y16329*
X23889Y16276*
X23994*
X24047Y16329*
X24309Y16276D02*
Y16591D01*
X24152Y16434*
X24362*
X9484Y11165D02*
X9431Y11217D01*
X9326*
X9274Y11165*
Y10955*
X9326Y10902*
X9431*
X9484Y10955*
X9588Y11165D02*
X9641Y11217D01*
X9746*
X9798Y11165*
Y11112*
X9746Y11060*
X9798Y11007*
Y10955*
X9746Y10902*
X9641*
X9588Y10955*
Y11007*
X9641Y11060*
X9588Y11112*
Y11165*
X9641Y11060D02*
X9746D01*
X19572Y11214D02*
X19520Y11266D01*
X19415*
X19362Y11214*
Y11004*
X19415Y10952*
X19520*
X19572Y11004*
X19887Y11266D02*
X19782Y11214D01*
X19677Y11109*
Y11004*
X19730Y10952*
X19834*
X19887Y11004*
Y11057*
X19834Y11109*
X19677*
X24295Y11168D02*
X24242Y11220D01*
X24137*
X24085Y11168*
Y10958*
X24137Y10906*
X24242*
X24295Y10958*
X24399Y11220D02*
X24609D01*
Y11168*
X24399Y10958*
Y10906*
X6352Y18159D02*
Y17844D01*
X6509*
X6562Y17896*
Y18106*
X6509Y18159*
X6352*
X6667Y17844D02*
X6772D01*
X6719*
Y18159*
X6667Y18106*
X16611Y18109D02*
Y17794D01*
X16768*
X16821Y17846*
Y18056*
X16768Y18109*
X16611*
X16925Y18056D02*
X16978Y18109D01*
X17083*
X17135Y18056*
Y18004*
X17083Y17951*
X17030*
X17083*
X17135Y17899*
Y17846*
X17083Y17794*
X16978*
X16925Y17846*
X21259Y18109D02*
Y17794D01*
X21416*
X21469Y17846*
Y18056*
X21416Y18109*
X21259*
X21731Y17794D02*
Y18109D01*
X21574Y17951*
X21784*
X10308Y21391D02*
Y21601D01*
X10256Y21653*
X10151*
X10098Y21601*
Y21391*
X10151Y21339*
X10256*
X10203Y21444D02*
X10308Y21339D01*
X10256D02*
X10308Y21391D01*
X10413Y21339D02*
X10518D01*
X10466*
Y21653*
X10413Y21601*
X16174Y21411D02*
Y21621D01*
X16122Y21673*
X16017*
X15965Y21621*
Y21411*
X16017Y21358*
X16122*
X16070Y21463D02*
X16174Y21358D01*
X16122D02*
X16174Y21411D01*
X16489Y21358D02*
X16279D01*
X16489Y21568*
Y21621*
X16437Y21673*
X16332*
X16279Y21621*
X22021Y21411D02*
Y21621D01*
X21968Y21673*
X21864*
X21811Y21621*
Y21411*
X21864Y21358*
X21968*
X21916Y21463D02*
X22021Y21358D01*
X21968D02*
X22021Y21411D01*
X22126Y21621D02*
X22178Y21673D01*
X22283*
X22336Y21621*
Y21568*
X22283Y21516*
X22231*
X22283*
X22336Y21463*
Y21411*
X22283Y21358*
X22178*
X22126Y21411*
X27848D02*
Y21621D01*
X27795Y21673*
X27690*
X27638Y21621*
Y21411*
X27690Y21358*
X27795*
X27743Y21463D02*
X27848Y21358D01*
X27795D02*
X27848Y21411D01*
X28110Y21358D02*
Y21673D01*
X27953Y21516*
X28163*
X10210Y20348D02*
Y20558D01*
X10157Y20610*
X10052*
X10000Y20558*
Y20348*
X10052Y20295*
X10157*
X10105Y20400D02*
X10210Y20295D01*
X10157D02*
X10210Y20348D01*
X10525Y20610D02*
X10315D01*
Y20453*
X10420Y20505*
X10472*
X10525Y20453*
Y20348*
X10472Y20295*
X10367*
X10315Y20348*
X16174Y20308D02*
Y20518D01*
X16122Y20571*
X16017*
X15965Y20518*
Y20308*
X16017Y20256*
X16122*
X16070Y20361D02*
X16174Y20256D01*
X16122D02*
X16174Y20308D01*
X16489Y20571D02*
X16384Y20518D01*
X16279Y20413*
Y20308*
X16332Y20256*
X16437*
X16489Y20308*
Y20361*
X16437Y20413*
X16279*
X27828Y20308D02*
Y20518D01*
X27776Y20571*
X27671*
X27618Y20518*
Y20308*
X27671Y20256*
X27776*
X27723Y20361D02*
X27828Y20256D01*
X27776D02*
X27828Y20308D01*
X27933Y20518D02*
X27985Y20571D01*
X28090*
X28143Y20518*
Y20466*
X28090Y20413*
X28143Y20361*
Y20308*
X28090Y20256*
X27985*
X27933Y20308*
Y20361*
X27985Y20413*
X27933Y20466*
Y20518*
X27985Y20413D02*
X28090D01*
X7852Y17794D02*
Y18109D01*
X8009*
X8062Y18056*
Y17951*
X8009Y17899*
X7852*
X7957D02*
X8062Y17794D01*
X8167D02*
X8272D01*
X8219*
Y18109*
X8167Y18056*
X12943Y17794D02*
Y18109D01*
X13100*
X13152Y18056*
Y17951*
X13100Y17899*
X12943*
X13047D02*
X13152Y17794D01*
X13467D02*
X13257D01*
X13467Y18004*
Y18056*
X13415Y18109*
X13310*
X13257Y18056*
X17985Y17794D02*
Y18109D01*
X18142*
X18195Y18056*
Y17951*
X18142Y17899*
X17985*
X18090D02*
X18195Y17794D01*
X18299Y18056D02*
X18352Y18109D01*
X18457*
X18509Y18056*
Y18004*
X18457Y17951*
X18404*
X18457*
X18509Y17899*
Y17846*
X18457Y17794*
X18352*
X18299Y17846*
X22631Y17794D02*
Y18109D01*
X22789*
X22841Y18056*
Y17951*
X22789Y17899*
X22631*
X22736D02*
X22841Y17794D01*
X23104D02*
Y18109D01*
X22946Y17951*
X23156*
X9552Y17794D02*
Y18109D01*
X9709*
X9762Y18056*
Y17951*
X9709Y17899*
X9552*
X9657D02*
X9762Y17794D01*
X10077Y18109D02*
X9867D01*
Y17951*
X9972Y18004*
X10024*
X10077Y17951*
Y17846*
X10024Y17794*
X9919*
X9867Y17846*
X14643Y17794D02*
Y18109D01*
X14800*
X14852Y18056*
Y17951*
X14800Y17899*
X14643*
X14747D02*
X14852Y17794D01*
X15167Y18109D02*
X15062Y18056D01*
X14957Y17951*
Y17846*
X15010Y17794*
X15115*
X15167Y17846*
Y17899*
X15115Y17951*
X14957*
X19685Y17794D02*
Y18109D01*
X19842*
X19895Y18056*
Y17951*
X19842Y17899*
X19685*
X19790D02*
X19895Y17794D01*
X20000Y18109D02*
X20209D01*
Y18056*
X20000Y17846*
Y17794*
X24381D02*
Y18109D01*
X24539*
X24591Y18056*
Y17951*
X24539Y17899*
X24381*
X24486D02*
X24591Y17794D01*
X24696Y18056D02*
X24749Y18109D01*
X24854*
X24906Y18056*
Y18004*
X24854Y17951*
X24906Y17899*
Y17846*
X24854Y17794*
X24749*
X24696Y17846*
Y17899*
X24749Y17951*
X24696Y18004*
Y18056*
X24749Y17951D02*
X24854D01*
X7894Y11555D02*
Y11870D01*
X8051*
X8104Y11818*
Y11713*
X8051Y11660*
X7894*
X7999D02*
X8104Y11555D01*
X8209Y11608D02*
X8261Y11555D01*
X8366*
X8418Y11608*
Y11818*
X8366Y11870*
X8261*
X8209Y11818*
Y11765*
X8261Y11713*
X8418*
X11388Y10925D02*
Y11240D01*
X11545*
X11598Y11188*
Y11083*
X11545Y11030*
X11388*
X11493D02*
X11598Y10925D01*
X11703D02*
X11808D01*
X11755*
Y11240*
X11703Y11188*
X11965D02*
X12018Y11240D01*
X12122*
X12175Y11188*
Y10978*
X12122Y10925*
X12018*
X11965Y10978*
Y11188*
X16467Y10955D02*
Y11270D01*
X16624*
X16676Y11217*
Y11112*
X16624Y11060*
X16467*
X16571D02*
X16676Y10955D01*
X16781D02*
X16886D01*
X16834*
Y11270*
X16781Y11217*
X17044Y10955D02*
X17149D01*
X17096*
Y11270*
X17044Y11217*
X21152Y11043D02*
Y11358D01*
X21309*
X21361Y11306*
Y11201*
X21309Y11148*
X21152*
X21257D02*
X21361Y11043D01*
X21466D02*
X21571D01*
X21519*
Y11358*
X21466Y11306*
X21939Y11043D02*
X21729D01*
X21939Y11253*
Y11306*
X21886Y11358*
X21781*
X21729Y11306*
X33898Y14547D02*
Y14232D01*
X34055*
X34108Y14285*
Y14337*
X34055Y14390*
X33898*
X34055*
X34108Y14442*
Y14495*
X34055Y14547*
X33898*
X34213Y14390D02*
X34422D01*
X34317Y14495D02*
Y14285D01*
X13080Y20832D02*
Y21147D01*
X13185Y21042*
X13290Y21147*
Y20832*
X13605D02*
X13395D01*
X13605Y21042*
Y21095*
X13553Y21147*
X13448*
X13395Y21095*
X18915Y20881D02*
Y21196D01*
X19020Y21091*
X19124Y21196*
Y20881*
X19229Y21144D02*
X19282Y21196D01*
X19387*
X19439Y21144*
Y21091*
X19387Y21039*
X19334*
X19387*
X19439Y20986*
Y20934*
X19387Y20881*
X19282*
X19229Y20934*
X25004Y20921D02*
Y21236D01*
X25108Y21131*
X25213Y21236*
Y20921*
X25476D02*
Y21236D01*
X25318Y21078*
X25528*
X29718Y12123D02*
X29665Y12175D01*
X29560*
X29508Y12123*
Y11913*
X29560Y11860*
X29665*
X29718Y11913*
Y12018*
X29613*
X29823Y11860D02*
Y12175D01*
X30033Y11860*
Y12175*
X30138D02*
Y11860D01*
X30295*
X30347Y11913*
Y12123*
X30295Y12175*
X30138*
X6689Y14583D02*
X6951D01*
X7004Y14636*
Y14741*
X6951Y14793*
X6689*
X7004Y14898D02*
Y15003D01*
Y14950*
X6689*
X6741Y14898*
X11841Y14512D02*
X12104D01*
X12156Y14564*
Y14669*
X12104Y14722*
X11841*
X12156Y15037D02*
Y14827D01*
X11946Y15037*
X11894*
X11841Y14984*
Y14879*
X11894Y14827*
X16805Y14491D02*
X17067D01*
X17120Y14543*
Y14648*
X17067Y14700*
X16805*
X16857Y14805D02*
X16805Y14858D01*
Y14963*
X16857Y15015*
X16910*
X16962Y14963*
Y14910*
Y14963*
X17015Y15015*
X17067*
X17120Y14963*
Y14858*
X17067Y14805*
X21518Y14501D02*
X21781D01*
X21833Y14553*
Y14658*
X21781Y14711*
X21518*
X21833Y14973D02*
X21518D01*
X21676Y14816*
Y15026*
X7277Y20920D02*
Y21235D01*
X7382Y21130*
X7487Y21235*
Y20920*
X7592D02*
X7697D01*
X7644*
Y21235*
X7592Y21182*
X26631Y5926D02*
X26579Y5979D01*
X26474*
X26421Y5926*
Y5717*
X26474Y5664*
X26579*
X26631Y5717*
X26736Y5664D02*
X26841D01*
X26789*
Y5979*
X26736Y5926*
X27156Y5664D02*
Y5979D01*
X26999Y5821*
X27209*
X33184Y3916D02*
X33132Y3969D01*
X33027*
X32974Y3916*
Y3706*
X33027Y3654*
X33132*
X33184Y3706*
X33289Y3654D02*
X33394D01*
X33342*
Y3969*
X33289Y3916*
X33761Y3969D02*
X33656Y3916D01*
X33551Y3811*
Y3706*
X33604Y3654*
X33709*
X33761Y3706*
Y3759*
X33709Y3811*
X33551*
X16777Y3798D02*
X16724Y3850D01*
X16619*
X16567Y3798*
Y3588*
X16619Y3536*
X16724*
X16777Y3588*
X16882D02*
X16934Y3536D01*
X17039*
X17091Y3588*
Y3798*
X17039Y3850*
X16934*
X16882Y3798*
Y3746*
X16934Y3693*
X17091*
X33834Y8887D02*
Y9202D01*
X33991*
X34044Y9150*
Y9045*
X33991Y8992*
X33834*
X34358Y9202D02*
X34148D01*
Y9045*
X34253Y9097*
X34306*
X34358Y9045*
Y8940*
X34306Y8887*
X34201*
X34148Y8940*
X31744Y5662D02*
Y5976D01*
X31902*
X31954Y5924*
Y5819*
X31902Y5767*
X31744*
X31849D02*
X31954Y5662D01*
X32059D02*
X32164D01*
X32112*
Y5976*
X32059Y5924*
X32531Y5976D02*
X32321D01*
Y5819*
X32426Y5872*
X32479*
X32531Y5819*
Y5714*
X32479Y5662*
X32374*
X32321Y5714*
X15209Y4756D02*
Y5071D01*
X15366*
X15419Y5018*
Y4914*
X15366Y4861*
X15209*
X15314D02*
X15419Y4756D01*
X15524D02*
X15629D01*
X15576*
Y5071*
X15524Y5018*
X15996Y5071D02*
X15891Y5018D01*
X15786Y4914*
Y4809*
X15838Y4756*
X15943*
X15996Y4809*
Y4861*
X15943Y4914*
X15786*
X31754Y4933D02*
Y5248D01*
X31911*
X31964Y5196*
Y5091*
X31911Y5038*
X31754*
X31859D02*
X31964Y4933D01*
X32069D02*
X32174D01*
X32121*
Y5248*
X32069Y5196*
X32331Y5248D02*
X32541D01*
Y5196*
X32331Y4986*
Y4933*
X28015Y9565D02*
Y9303D01*
X28067Y9251*
X28172*
X28224Y9303*
Y9565*
X28539D02*
X28329D01*
Y9408*
X28434Y9460*
X28487*
X28539Y9408*
Y9303*
X28487Y9251*
X28382*
X28329Y9303*
X22021Y20328D02*
Y20538D01*
X21968Y20590*
X21864*
X21811Y20538*
Y20328*
X21864Y20276*
X21968*
X21916Y20381D02*
X22021Y20276D01*
X21968D02*
X22021Y20328D01*
X22126Y20590D02*
X22336D01*
Y20538*
X22126Y20328*
Y20276*
X33667Y23825D02*
X33614Y23878D01*
X33509*
X33457Y23825*
Y23616*
X33509Y23563*
X33614*
X33667Y23616*
X33772Y23563D02*
X33877D01*
X33824*
Y23878*
X33772Y23825*
X34034D02*
X34087Y23878D01*
X34192*
X34244Y23825*
Y23616*
X34192Y23563*
X34087*
X34034Y23616*
Y23825*
X31786Y9133D02*
X31734Y9186D01*
X31629*
X31576Y9133*
Y8923*
X31629Y8871*
X31734*
X31786Y8923*
X31891Y8871D02*
X31996D01*
X31943*
Y9186*
X31891Y9133*
X32153D02*
X32206Y9186D01*
X32311*
X32363Y9133*
Y9081*
X32311Y9028*
X32258*
X32311*
X32363Y8976*
Y8923*
X32311Y8871*
X32206*
X32153Y8923*
X11647Y18187D02*
Y17872D01*
X11804*
X11857Y17924*
Y18134*
X11804Y18187*
X11647*
X12172Y17872D02*
X11962D01*
X12172Y18082*
Y18134*
X12119Y18187*
X12014*
X11962Y18134*
X26360Y10386D02*
Y10701D01*
X26518*
X26570Y10648*
Y10543*
X26518Y10491*
X26360*
X26465D02*
X26570Y10386D01*
X26675D02*
X26780D01*
X26728*
Y10701*
X26675Y10648*
X26938D02*
X26990Y10701D01*
X27095*
X27148Y10648*
Y10596*
X27095Y10543*
X27148Y10491*
Y10439*
X27095Y10386*
X26990*
X26938Y10439*
Y10491*
X26990Y10543*
X26938Y10596*
Y10648*
X26990Y10543D02*
X27095D01*
X31462Y13688D02*
X31410Y13740D01*
X31305*
X31252Y13688*
Y13478*
X31305Y13425*
X31410*
X31462Y13478*
X31567Y13425D02*
X31672D01*
X31619*
Y13740*
X31567Y13688*
X31829Y13478D02*
X31882Y13425D01*
X31987*
X32039Y13478*
Y13688*
X31987Y13740*
X31882*
X31829Y13688*
Y13635*
X31882Y13583*
X32039*
X10778Y7618D02*
Y7933D01*
X10935*
X10987Y7880*
Y7776*
X10935Y7723*
X10778*
X11092Y7671D02*
X11145Y7618D01*
X11250*
X11302Y7671*
Y7880*
X11250Y7933*
X11145*
X11092Y7880*
Y7828*
X11145Y7776*
X11302*
X14830Y11086D02*
X14777Y11138D01*
X14672*
X14620Y11086*
Y10876*
X14672Y10824*
X14777*
X14830Y10876*
X15144Y11138D02*
X14935D01*
Y10981*
X15039Y11034*
X15092*
X15144Y10981*
Y10876*
X15092Y10824*
X14987*
X14935Y10876*
X7677Y4843D02*
X7782D01*
X7730*
Y5157*
X7677Y5105*
X8149Y4843D02*
X7940D01*
X8149Y5052*
Y5105*
X8097Y5157*
X7992*
X7940Y5105*
G54D42*
X28349Y16043D03*
M02*