%FSLAX24Y24*%
%MOIN*%
%SFA1B1*%

%IPPOS*%
%ADD10C,0.039400*%
%ADD11C,0.019700*%
%ADD12C,0.015700*%
%ADD13C,0.157500*%
%ADD14C,0.098400*%
%ADD15C,0.196900*%
%ADD16C,0.027600*%
%ADD17C,0.078700*%
%ADD18C,0.070900*%
%ADD19R,0.070900X0.070900*%
%ADD20C,0.047200*%
%ADD21C,0.063000*%
%ADD22C,0.078700*%
%ADD23C,0.090600*%
%ADD24R,0.070900X0.070900*%
%ADD25R,0.059100X0.059100*%
%ADD26C,0.059100*%
%ADD27R,0.078700X0.078700*%
%ADD28C,0.137800*%
%ADD29R,0.059100X0.059100*%
%ADD30R,0.078700X0.078700*%
%ADD31C,0.060000*%
%ADD32C,0.031500*%
%LN2x-h-bridge-1*%
%LPD*%
G36*
X29331Y17579D02*
X27677D01*
Y19587*
X26798Y19592*
X26621Y19376*
X25676*
X25453Y19606*
X24134*
Y21555*
X24508Y21929*
X27539*
Y22244*
X27684Y22250*
X29357*
X29331Y17579*
G37*
G36*
X34449Y12992D02*
X31988D01*
Y15925*
Y21850*
X31398Y22441*
X27838*
Y22500*
X27826Y22616*
X27792Y22727*
X27737Y22830*
X27664Y22920*
X27574Y22993*
X27471Y23048*
X27360Y23082*
X27244Y23093*
X27128Y23082*
X27017Y23048*
X26914Y22993*
X26824Y22920*
X26751Y22830*
X26696Y22727*
X26662Y22616*
X26651Y22500*
Y22441*
X25771*
X25738Y22479*
X25740Y22500*
X25724Y22628*
X25674Y22748*
X25595Y22851*
X25492Y22930*
X25373Y22979*
X25244Y22996*
X25116Y22979*
X24996Y22930*
X24893Y22851*
X24814Y22748*
X24795Y22701*
X24705*
X24628Y22685*
X24563Y22642*
X24362Y22441*
X22017*
Y22500*
X22006Y22616*
X21972Y22727*
X21917Y22830*
X21843Y22920*
X21753Y22993*
X21651Y23048*
X21539Y23082*
X21424Y23093*
X21308Y23082*
X21197Y23048*
X21094Y22993*
X21004Y22920*
X20930Y22830*
X20875Y22727*
X20842Y22616*
X20830Y22500*
Y22441*
X19891*
X19858Y22479*
X19861Y22500*
X19844Y22628*
X19794Y22748*
X19716Y22851*
X19613Y22930*
X19493Y22979*
X19365Y22996*
X19236Y22979*
X19116Y22930*
X19014Y22851*
X18935Y22748*
X18915Y22701*
X18760*
X18683Y22685*
X18618Y22642*
X18417Y22441*
X16078*
Y22500*
X16067Y22616*
X16033Y22727*
X15978Y22830*
X15905Y22920*
X15815Y22993*
X15712Y23048*
X15601Y23082*
X15485Y23093*
X15369Y23082*
X15258Y23048*
X15155Y22993*
X15065Y22920*
X14992Y22830*
X14937Y22727*
X14903Y22616*
X14892Y22500*
Y22441*
X14012*
X13979Y22479*
X13981Y22500*
X13965Y22628*
X13915Y22748*
X13836Y22851*
X13733Y22930*
X13614Y22979*
X13485Y22996*
X13357Y22979*
X13237Y22930*
X13134Y22851*
X13055Y22748*
X13036Y22701*
X12776*
X12699Y22685*
X12634Y22642*
X12433Y22441*
X10100*
Y22461*
X10089Y22576*
X10055Y22688*
X10000Y22790*
X9927Y22880*
X9837Y22954*
X9734Y23009*
X9623Y23043*
X9507Y23054*
X9391Y23043*
X9280Y23009*
X9177Y22954*
X9087Y22880*
X9014Y22790*
X8959Y22688*
X8925Y22576*
X8914Y22461*
Y22441*
X8034*
X8001Y22479*
X8003Y22500*
X7987Y22628*
X7937Y22748*
X7858Y22851*
X7755Y22930*
X7636Y22979*
X7507Y22996*
X7379Y22979*
X7259Y22930*
X7156Y22851*
X7077Y22748*
X7058Y22701*
X6909*
X6833Y22685*
X6768Y22642*
X6567Y22441*
X6102*
Y22539*
Y24114*
X34449*
Y12992*
G37*
G36*
X12008Y18366D02*
X11732Y18032D01*
X10217*
Y19311*
X9980Y19587*
X9154*
X8983Y19395*
X8038*
X7815Y19626*
X6496*
Y21752*
X6693Y21949*
X10000*
Y22264*
X12008*
Y18366*
G37*
G36*
X17756D02*
X17480Y18071D01*
X16102*
Y19252*
X15866Y19587*
X15138*
X14941Y19370*
X14081Y19376*
X13858Y19606*
X12539*
Y21732*
X12736Y21929*
X15945*
Y22244*
X16089Y22250*
X17763*
X17756Y18366*
G37*
G36*
X23543Y18602D02*
X22972Y18051D01*
X21909*
Y19626*
X20965*
X20794Y19415*
X19849*
X19626Y19646*
X18307*
Y21673*
X18602Y21969*
X21713*
Y22283*
X21857Y22289*
X23530*
X23543Y18602*
G37*
G54D10*
X8945Y6902D02*
Y6941D01*
Y5902D02*
Y6902D01*
Y4941D02*
Y5902D01*
X7638Y3740D02*
Y6220D01*
X7165Y6693D02*
X7638Y6220D01*
X8287Y4449D02*
Y6516D01*
X8169Y4449D02*
X8287D01*
X7677Y7126D02*
X8287Y6516D01*
X8169Y3740D02*
X8783D01*
X9945Y4902*
X32925Y5118D02*
Y5817D01*
Y4370D02*
Y5118D01*
X33081Y7087D02*
X33150Y7156D01*
X32087Y7087D02*
X33081D01*
X31152Y8022D02*
X32087Y7087D01*
X29528Y8022D02*
X31152D01*
X28543Y9350D02*
Y10425D01*
Y7677D02*
Y9350D01*
X27362D02*
X28543D01*
X26675Y8663D02*
X27362Y9350D01*
X26675Y8514D02*
Y8663D01*
X28543Y10425D02*
X28935Y10817D01*
X28543Y7677D02*
X29183Y7037D01*
X29528*
X27675Y7776D02*
Y8514D01*
Y6890D02*
Y7776D01*
X30423Y5102D02*
Y6142D01*
X29528Y7037D02*
X30423Y6142D01*
X26675Y6850D02*
X28423Y5102D01*
X26675Y6850D02*
Y6890D01*
X26715Y6929*
X29423Y5102D02*
X29528Y5207D01*
X19488Y4547D02*
X19528Y4508D01*
X33150Y8140D02*
Y8602D01*
X30935Y10817D02*
X33150Y8602D01*
X30935Y10817D02*
X31587Y11468D01*
Y12480*
X33422Y12630D02*
Y13563D01*
X33571Y13414*
X29423Y5102D02*
Y5419D01*
X27953Y6890D02*
X29423Y5419D01*
X27675Y6890D02*
X27953D01*
X25276Y4213D02*
Y4459D01*
X24803Y3740D02*
X25276Y4213D01*
X19193Y3740D02*
X24803D01*
X18543Y4390D02*
X19193Y3740D01*
X18543Y4390D02*
Y4508D01*
X17746Y3711D02*
X18543Y4508D01*
X10856Y3711D02*
X17746D01*
X9941Y4626D02*
X10856Y3711D01*
X9941Y4626D02*
X9945Y4630D01*
X26715Y6929D02*
Y7776D01*
X18630Y8858D02*
Y9083D01*
X19205Y9657*
Y10059*
X21151Y10138D02*
X21201D01*
X7052Y12159D02*
Y12644D01*
Y12159D02*
X7498Y11713D01*
X12143Y11724D02*
Y12644D01*
Y11724D02*
X12282Y11585D01*
X10052Y11619D02*
Y12644D01*
X10047Y11614D02*
X10052Y11619D01*
X15143Y11765D02*
Y12644D01*
Y11765D02*
X15333Y11575D01*
X17135Y11692D02*
Y12644D01*
Y11692D02*
X17232Y11594D01*
X20135Y11704D02*
Y12644D01*
Y11704D02*
X20136Y11703D01*
X21832Y12644D02*
X22104Y12371D01*
Y11673D02*
Y12371D01*
X11811Y11024D02*
X12327Y11539D01*
X9736Y11024D02*
X11811D01*
X9047Y11713D02*
X9736Y11024D01*
X28349Y16791D02*
X29943Y15197D01*
X31535*
X32677Y16339*
X9945Y4630D02*
Y4902D01*
Y5902*
Y6902*
Y6941*
X19630Y8724D02*
Y8858D01*
Y5858D02*
Y7681D01*
X20122Y8173*
Y8509*
X17630Y5858D02*
X18996Y7224D01*
Y8091*
X19630Y8724*
X28349Y12942D02*
Y13996D01*
X7008Y10610D02*
X7677Y9941D01*
Y7126D02*
Y9941D01*
X7498Y11713D02*
X9047D01*
G54D11*
X13622Y10591D02*
Y12008D01*
X13051Y10020D02*
X13622Y10591D01*
X12931Y10020D02*
X13051D01*
X13622Y12008D02*
X14143Y12528D01*
X24685Y17028D02*
Y17588D01*
X23900Y16243D02*
X24685Y17028D01*
X23700Y16444D02*
X23900Y16243D01*
X12693Y17394D02*
Y17563D01*
X12323Y17933D02*
X12693Y17563D01*
X12323Y17933D02*
Y22047D01*
X8507Y18934D02*
X9803Y17638D01*
Y17068D02*
Y17638D01*
X9052Y16317D02*
X9803Y17068D01*
X11878Y16398D02*
X11988D01*
X33925Y5817D02*
X34350Y6242D01*
Y11701*
X33571Y12480D02*
X34350Y11701D01*
X17331Y4242D02*
X18207Y5118D01*
X19902*
X20512Y4508*
X20130Y8516D02*
Y9117D01*
X26740Y12724D02*
Y14007D01*
X14143Y12528D02*
Y12644D01*
X6339Y16130D02*
X6652Y16444D01*
X6339Y11872D02*
Y16130D01*
X11281Y11585D02*
Y15801D01*
X11878Y16398*
X16232Y11594D02*
Y15765D01*
X16911Y16444*
X21104Y11673D02*
Y16039D01*
X21509Y16444*
X7052Y15944D02*
X7552Y16444D01*
X6652Y17444D02*
X7552Y16544D01*
X8052Y15644D02*
Y16894D01*
X8552Y17394*
X7552D02*
Y17802D01*
X8585Y18110D02*
X9302Y17394D01*
X8071Y18110D02*
X8585D01*
X7507Y18674D02*
X8071Y18110D01*
X12143Y15644D02*
X12693Y16194D01*
Y16444*
X11909Y17429D02*
X12693Y16646D01*
X13189Y16890D02*
X13693Y17394D01*
X13189Y15690D02*
Y16890D01*
X9052Y15944D02*
Y16317D01*
X8552Y16444D02*
X8925D01*
X9052Y16317*
X10236Y15828D02*
Y17328D01*
X13485Y18602D02*
X14443Y17644D01*
X13485Y18602D02*
Y19047D01*
X13693Y16444D02*
X13959D01*
X14143Y16260*
Y15644D02*
Y16260D01*
X15354Y15856D02*
Y17306D01*
X14143Y16347D02*
X14961Y17165D01*
X14485Y18468D02*
Y19047D01*
Y18468D02*
X14961Y17992D01*
Y17165D02*
Y17992D01*
X17135Y15644D02*
X17735Y16244D01*
X16911Y17268D02*
X17735Y16444D01*
X18228Y15737D02*
Y16887D01*
X18735Y17394*
X19135Y15644D02*
Y16044D01*
X18735Y16444D02*
X19135Y16044D01*
X19435Y17394D02*
Y18927D01*
X19921Y18654D02*
X20315Y19047D01*
X19921Y16830D02*
Y18654D01*
X19135Y16044D02*
X19921Y16830D01*
X20435Y15944D02*
Y17394D01*
X20135Y15644D02*
X20435Y15944D01*
X21832Y15644D02*
X22431Y16244D01*
X21509Y17444D02*
X22470Y16482D01*
X22953Y15765D02*
Y16915D01*
X23431Y17394*
X24181Y18084D02*
X25144Y19047D01*
X24181Y17394D02*
Y18084D01*
X24685Y17588D02*
X26144Y19047D01*
X23431Y16444D02*
X23700D01*
X23832Y15644D02*
Y16312D01*
X25182Y15994D02*
Y17394D01*
X24832Y15644D02*
X25182Y15994D01*
X17735Y17394D02*
X18032Y17691D01*
Y21772*
X18760Y22500*
X19365*
X22669Y17394D02*
X23898Y18622D01*
Y21693*
X24705Y22500*
X25244*
X6220Y19134D02*
X7552Y17802D01*
X6220Y19134D02*
Y21811D01*
X6909Y22500*
X7507*
X12323Y22047D02*
X12776Y22500D01*
X13485*
X28349Y12942D02*
X28353Y12938D01*
G54D12*
X18135Y11580D02*
Y12644D01*
X17303Y10748D02*
X18135Y11580D01*
X15787Y10748D02*
X17303D01*
X7638Y3740D02*
X8169D01*
X6850Y6693D02*
X7165D01*
X8209Y10335D02*
X8504Y10630D01*
X8209Y7421D02*
Y10335D01*
Y7421D02*
X8689Y6941D01*
X19153Y10007D02*
X19205Y10059D01*
X8780Y10075D02*
X9307Y9547D01*
Y8602D02*
Y9547D01*
Y8602D02*
X9945Y7965D01*
X10787Y4331D02*
X12441D01*
X12539Y4429*
X13143Y12644D02*
X13144D01*
X20122Y8509D02*
X20130Y8516D01*
X15630Y5858D02*
Y7933D01*
X23630Y8000D02*
Y8858D01*
X23622Y7992D02*
X23630Y8000D01*
X24630Y7661D02*
Y8858D01*
X24606Y7638D02*
X24630Y7661D01*
X21630Y8858D02*
X22831Y10060D01*
Y12644*
X26740Y14007D02*
X26883Y14150D01*
X9945Y6941D02*
Y7965D01*
X10224Y10630D02*
X10780Y10075D01*
X8504Y10630D02*
X10224D01*
X8689Y6941D02*
X8945D01*
X13143Y11253D02*
Y12644D01*
X12441Y10551D02*
X13143Y11253D01*
X12677Y9567D02*
X13780D01*
X14630Y5858D02*
Y8047D01*
X14134Y8543D02*
X14630Y8047D01*
X14134Y8543D02*
Y9213D01*
X13780Y9567D02*
X14134Y9213D01*
X9780Y10075D02*
X10287Y9567D01*
X12677*
X12441D02*
Y10551D01*
Y9567D02*
X12677D01*
X15315Y9173D02*
X15630Y8858D01*
X15315Y9173D02*
Y10276D01*
X15787Y10748*
X25871Y11107D02*
Y11675D01*
X25551Y10787D02*
X25871Y11107D01*
X25079Y6850D02*
X25157Y6772D01*
X25118Y6850D02*
Y9646D01*
X25551Y10079*
Y10787*
X6339Y11872D02*
X6498Y11713D01*
X7052Y15644D02*
Y15944D01*
X7552Y16444D02*
Y16544D01*
X7507Y18674D02*
Y19047D01*
X12693Y16444D02*
Y16646D01*
X13143Y15644D02*
X13189Y15690D01*
X9052Y15644D02*
Y16317D01*
X8507Y18934D02*
Y19047D01*
X10052Y15644D02*
X10236Y15828D01*
Y17328D02*
X10302Y17394D01*
X14443D02*
Y17644D01*
X14143Y15644D02*
Y16347D01*
X15143Y15644D02*
X15354Y15856D01*
Y17306D02*
X15443Y17394D01*
X17735Y16244D02*
Y16444D01*
X16911Y17268D02*
Y17444D01*
X18135Y15644D02*
X18228Y15737D01*
X19315Y19047D02*
X19435Y18927D01*
X22431Y16244D02*
Y16444D01*
Y16506*
X22831Y15644D02*
X22953Y15765D01*
X22431Y17394D02*
X22669D01*
X8497Y21097D02*
X8507Y21087D01*
X14425Y21096D02*
X14485Y21036D01*
X20305Y21097D02*
X20315Y21087D01*
X26144Y20910D02*
X26331Y21097D01*
X32776Y21575D02*
X32835Y21634D01*
X14485Y23658D02*
X14528Y23701D01*
X20365Y23672D02*
X20394Y23701D01*
X26220D02*
X26244Y23677D01*
X22618Y6969D02*
Y7205D01*
X22610Y7020D02*
Y8681D01*
X20610Y7205D02*
Y8780D01*
X13630Y7213D02*
Y8858D01*
X13622Y7205D02*
X13630Y7213D01*
X10433Y4685D02*
X10787Y4331D01*
X9780Y8980D02*
Y9075D01*
Y8980D02*
X10433Y8327D01*
Y4685D02*
Y8327D01*
X7008Y11240D02*
X7026D01*
X7008Y10610D02*
Y11240D01*
G54D13*
X30807Y16575D02*
Y21378D01*
X32776Y21575D02*
X33422Y20929D01*
G54D14*
X9507Y21948D02*
Y22461D01*
X8606Y21007D02*
X9606Y22007D01*
X21424Y22093D02*
Y22500D01*
X15485Y22001D02*
Y22500D01*
X14580Y21096D02*
X15485Y22001D01*
X14425Y21096D02*
X14580D01*
X21398Y22067D02*
X21424Y22093D01*
X21398Y21973D02*
Y22067D01*
X20443Y21018D02*
X21398Y21973D01*
X8507Y19047D02*
Y20948D01*
X14485Y19047D02*
Y21036D01*
X20315Y19047D02*
Y21087D01*
X26144Y19047D02*
Y20910D01*
X26331Y21097D02*
X27244Y22010D01*
Y22500*
G54D15*
X33422Y13563D02*
Y20929D01*
G54D16*
X19630Y8858D02*
Y9256D01*
X20205Y9831*
Y10059*
X20130Y9117D02*
X21151Y10138D01*
X16063Y10039D02*
X16358Y9744D01*
X17630Y9638D02*
X18032Y10039D01*
X17630Y8858D02*
Y9638D01*
X16358Y9130D02*
Y9744D01*
Y9130D02*
X16630Y8858D01*
X7026Y11240D02*
X7498Y11713D01*
G54D17*
X8507Y22500D02*
Y23113D01*
X9094Y23701*
X31339D02*
X32835Y22205D01*
Y21634D02*
Y22205D01*
X14485Y22500D02*
Y23658D01*
X9094Y23701D02*
X14528D01*
X20365Y22500D02*
Y23672D01*
X14528Y23701D02*
X20394D01*
X26244Y22500D02*
Y23677D01*
X20394Y23701D02*
X26220D01*
X31339*
G54D18*
X24291Y4459D03*
X23307D03*
X22323D03*
X19528Y4508D03*
X18543D03*
X29626Y7037D03*
Y8022D03*
X6850Y9646D03*
Y5709D03*
Y6693D03*
Y7677D03*
Y8661D03*
X33622Y9990D03*
X33051Y7116D03*
Y8100D03*
G54D19*
X25276Y4459D03*
X20512Y4508D03*
G54D20*
X12931Y10020D03*
X11931D03*
X14461Y4321D03*
X15461D03*
X20205Y10059D03*
X19205D03*
X6508Y10906D03*
X7508D03*
X26675Y7776D03*
X27675D03*
X26675Y8514D03*
X27675D03*
X26740Y12724D03*
Y11724D03*
X25871Y12675D03*
Y11675D03*
X8552Y16444D03*
X7552D03*
X13693D03*
X12693D03*
X18735D03*
X17735D03*
X23431D03*
X22431D03*
X9047Y11614D03*
X10047D03*
X19136Y11703D03*
X20136D03*
X23831Y11713D03*
X24831D03*
X6652Y17444D03*
Y16444D03*
X16911D03*
Y17444D03*
X21509D03*
Y16444D03*
X7552Y17394D03*
X8552D03*
X12693D03*
X13693D03*
X17735D03*
X18735D03*
X22431D03*
X23431D03*
X9302D03*
X10302D03*
X14443D03*
X15443D03*
X19435D03*
X20435D03*
X24181D03*
X25182D03*
X6498Y11713D03*
X7498D03*
X11281Y11585D03*
X12282D03*
X16232Y11594D03*
X17232D03*
X21104Y11673D03*
X22104D03*
X26675Y6890D03*
X27675D03*
X33925Y4370D03*
X32925D03*
X17331Y4242D03*
X16331D03*
X32925Y5817D03*
X33925D03*
X17331Y4931D03*
X16331D03*
X33925Y5118D03*
X32925D03*
X11909Y16429D03*
Y17429D03*
X25031Y10532D03*
X26031D03*
X14333Y11575D03*
X15333D03*
G54D21*
X12539Y4429D03*
X13539D03*
G54D22*
X18032Y10039D03*
X17047D03*
X16063D03*
X28423Y5102D03*
X29423D03*
X30423D03*
X28353Y12938D03*
X33643Y18920D03*
X26883Y16140D03*
Y15140D03*
Y14140D03*
X28349Y13996D03*
X31587Y12480D03*
X33571D03*
X7507Y22500D03*
X8507D03*
X9507D03*
X13485D03*
X14485D03*
X15485D03*
X19365D03*
X20365D03*
X21365D03*
X25244D03*
X26244D03*
X27244D03*
X7507Y19047D03*
X8507D03*
X9507D03*
X13485D03*
X14485D03*
X15485D03*
X25144D03*
X26144D03*
X27144D03*
X28935Y10817D03*
X29935D03*
X30935D03*
X19315Y19047D03*
X20315D03*
X21315D03*
X32776Y21575D03*
X32677Y16339D03*
G54D23*
X21201Y10138D03*
X23760D03*
G54D24*
X6850Y4724D03*
X33622Y10974D03*
G54D25*
X8780Y9075D03*
G54D26*
X8780Y10075D03*
X9780Y9075D03*
Y10075D03*
X10780Y9075D03*
Y10075D03*
X10052Y15644D03*
X9052D03*
X8052D03*
X7052D03*
X10052Y12644D03*
X9052D03*
X8052D03*
X15143Y15644D03*
X14143D03*
X13143D03*
X12143D03*
X15143Y12644D03*
X14143D03*
X13143D03*
X20135Y15644D03*
X19135D03*
X18135D03*
X17135D03*
X20135Y12644D03*
X19135D03*
X18135D03*
X24832Y15644D03*
X23832D03*
X22831D03*
X21832D03*
X24832Y12644D03*
X23832D03*
X22831D03*
X8945Y4902D03*
Y5902D03*
Y6902D03*
X9945Y4902D03*
Y5902D03*
Y6902D03*
X10945D03*
Y5902D03*
Y4902D03*
G54D27*
X28349Y16791D03*
G54D28*
X33422Y13563D03*
X14425Y21096D03*
X20305Y21097D03*
X26331D03*
X30000Y13041D03*
X8497Y21097D03*
G54D29*
X7052Y12644D03*
X12143D03*
X17135D03*
X21832D03*
G54D30*
X30807Y21575D03*
X30709Y16339D03*
G54D31*
X25630Y8858D03*
X24630D03*
X25630Y5858D03*
X24630D03*
X23630Y8858D03*
X22630D03*
X21630D03*
X20630D03*
X19630D03*
X18630D03*
X17630D03*
X16630D03*
X15630D03*
X14630D03*
X13630D03*
X12630D03*
X23630Y5858D03*
X22630D03*
X21630D03*
X17630D03*
X18630D03*
X19630D03*
X20630D03*
X12630D03*
X13630D03*
X14630D03*
X15630D03*
X16630D03*
G54D32*
X15669Y8031D03*
X24606Y7638D03*
X23622Y7992D03*
X25157Y6772D03*
X13622Y7205D03*
X22618Y6969D03*
X20610Y7205D03*
M02*