%FSLAX24Y24*%
%MOIN*%
%SFA1B1*%

%IPPOS*%
%ADD43C,0.078900*%
%ADD44R,0.078900X0.078900*%
%ADD45C,0.055200*%
%ADD46C,0.071000*%
%ADD47C,0.086700*%
%ADD48C,0.098600*%
%ADD49R,0.078900X0.078900*%
%ADD50R,0.067100X0.067100*%
%ADD51C,0.067100*%
%ADD52R,0.086700X0.086700*%
%ADD53C,0.145800*%
%ADD54R,0.067100X0.067100*%
%ADD55R,0.086700X0.086700*%
%ADD56C,0.068000*%
%ADD57C,0.039500*%
%LN2x-h-bridge-1*%
%LPD*%
G36*
X8465Y3504D02*
X7343D01*
Y3976*
X8465*
Y3504*
G37*
G36*
X8543Y4213D02*
X7461D01*
Y4724*
X8543*
Y4213*
G37*
G54D43*
X24291Y4459D03*
X23307D03*
X22323D03*
X19528Y4508D03*
X18543D03*
X29626Y7037D03*
Y8022D03*
X6850Y9646D03*
Y5709D03*
Y6693D03*
Y7677D03*
Y8661D03*
X33622Y9990D03*
X33051Y7116D03*
Y8100D03*
G54D44*
X25276Y4459D03*
X20512Y4508D03*
G54D45*
X12931Y10020D03*
X11931D03*
X14461Y4321D03*
X15461D03*
X20205Y10059D03*
X19205D03*
X6508Y10906D03*
X7508D03*
X26675Y7776D03*
X27675D03*
X26675Y8514D03*
X27675D03*
X26740Y12724D03*
Y11724D03*
X25871Y12675D03*
Y11675D03*
X8552Y16444D03*
X7552D03*
X13693D03*
X12693D03*
X18735D03*
X17735D03*
X23431D03*
X22431D03*
X9047Y11614D03*
X10047D03*
X19136Y11703D03*
X20136D03*
X23831Y11713D03*
X24831D03*
X6652Y17444D03*
Y16444D03*
X16911D03*
Y17444D03*
X21509D03*
Y16444D03*
X7552Y17394D03*
X8552D03*
X12693D03*
X13693D03*
X17735D03*
X18735D03*
X22431D03*
X23431D03*
X9302D03*
X10302D03*
X14443D03*
X15443D03*
X19435D03*
X20435D03*
X24181D03*
X25182D03*
X6498Y11713D03*
X7498D03*
X11281Y11585D03*
X12282D03*
X16232Y11594D03*
X17232D03*
X21104Y11673D03*
X22104D03*
X26675Y6890D03*
X27675D03*
X33925Y4370D03*
X32925D03*
X17331Y4242D03*
X16331D03*
X32925Y5817D03*
X33925D03*
X17331Y4931D03*
X16331D03*
X33925Y5118D03*
X32925D03*
X11909Y16429D03*
Y17429D03*
X25031Y10532D03*
X26031D03*
X14333Y11575D03*
X15333D03*
G54D46*
X12539Y4429D03*
X13539D03*
G54D47*
X18032Y10039D03*
X17047D03*
X16063D03*
X28423Y5102D03*
X29423D03*
X30423D03*
X28353Y12938D03*
X33643Y18920D03*
X26883Y16140D03*
Y15140D03*
Y14140D03*
X28349Y13996D03*
X31587Y12480D03*
X33571D03*
X7507Y22500D03*
X8507D03*
X9507D03*
X13485D03*
X14485D03*
X15485D03*
X19365D03*
X20365D03*
X21365D03*
X25244D03*
X26244D03*
X27244D03*
X7507Y19047D03*
X8507D03*
X9507D03*
X13485D03*
X14485D03*
X15485D03*
X25144D03*
X26144D03*
X27144D03*
X28935Y10817D03*
X29935D03*
X30935D03*
X19315Y19047D03*
X20315D03*
X21315D03*
X32776Y21575D03*
X32677Y16339D03*
G54D48*
X21201Y10138D03*
X23760D03*
G54D49*
X6850Y4724D03*
X33622Y10974D03*
G54D50*
X8780Y9075D03*
G54D51*
X8780Y10075D03*
X9780Y9075D03*
Y10075D03*
X10780Y9075D03*
Y10075D03*
X10052Y15644D03*
X9052D03*
X8052D03*
X7052D03*
X10052Y12644D03*
X9052D03*
X8052D03*
X15143Y15644D03*
X14143D03*
X13143D03*
X12143D03*
X15143Y12644D03*
X14143D03*
X13143D03*
X20135Y15644D03*
X19135D03*
X18135D03*
X17135D03*
X20135Y12644D03*
X19135D03*
X18135D03*
X24832Y15644D03*
X23832D03*
X22831D03*
X21832D03*
X24832Y12644D03*
X23832D03*
X22831D03*
X8945Y4902D03*
Y5902D03*
Y6902D03*
X9945Y4902D03*
Y5902D03*
Y6902D03*
X10945D03*
Y5902D03*
Y4902D03*
G54D52*
X28349Y16791D03*
G54D53*
X33422Y13563D03*
X14425Y21096D03*
X20305Y21097D03*
X26331D03*
X30000Y13041D03*
X8497Y21097D03*
G54D54*
X7052Y12644D03*
X12143D03*
X17135D03*
X21832D03*
G54D55*
X30807Y21575D03*
X30709Y16339D03*
G54D56*
X25630Y8858D03*
X24630D03*
X25630Y5858D03*
X24630D03*
X23630Y8858D03*
X22630D03*
X21630D03*
X20630D03*
X19630D03*
X18630D03*
X17630D03*
X16630D03*
X15630D03*
X14630D03*
X13630D03*
X12630D03*
X23630Y5858D03*
X22630D03*
X21630D03*
X17630D03*
X18630D03*
X19630D03*
X20630D03*
X12630D03*
X13630D03*
X14630D03*
X15630D03*
X16630D03*
G54D57*
X15669Y8031D03*
X24606Y7638D03*
X23622Y7992D03*
X25157Y6772D03*
X13622Y7205D03*
X22618Y6969D03*
X20610Y7205D03*
M02*